<?xml version="1.0" encoding="UTF-8" standalone="no"?><svg xmlns="http://www.w3.org/2000/svg" xmlns:xlink="http://www.w3.org/1999/xlink" contentScriptType="application/ecmascript" contentStyleType="text/css" height="857px" preserveAspectRatio="none" style="width:667px;height:857px;" version="1.1" viewBox="0 0 667 857" width="667px" zoomAndPan="magnify"><defs><filter height="300%" id="f1n7rrkhwrrkvo" width="300%" x="-1" y="-1"><feGaussianBlur result="blurOut" stdDeviation="2.0"/><feColorMatrix in="blurOut" result="blurOut2" type="matrix" values="0 0 0 0 0 0 0 0 0 0 0 0 0 0 0 0 0 0 .4 0"/><feOffset dx="4.0" dy="4.0" in="blurOut2" result="blurOut3"/><feBlend in="SourceGraphic" in2="blurOut3" mode="normal"/></filter></defs><g><!--MD5=[4ff5723f64e420a21b21ae51a8921c6d]
cluster 智能候诊系统业务边界--><rect fill="#FFFFFF" filter="url(#f1n7rrkhwrrkvo)" height="564" style="stroke:#000000;stroke-width:1.5;" width="175" x="238" y="281.5"/><text fill="#000000" font-family="sans-serif" font-size="14" font-weight="bold" lengthAdjust="spacing" textLength="150" x="250.5" y="299.5439">智能候诊系统业务边界</text><ellipse cx="325.6469" cy="404.5378" fill="#FEFECE" filter="url(#f1n7rrkhwrrkvo)" rx="51.1469" ry="16.5378" style="stroke:#A80036;stroke-width:1.5;"/><text fill="#000000" font-family="sans-serif" font-size="14" lengthAdjust="spacing" textLength="56" x="295.8976" y="409.5136">扫码签到</text><ellipse cx="325.5719" cy="336.7144" fill="#FEFECE" filter="url(#f1n7rrkhwrrkvo)" rx="71.5719" ry="16.7144" style="stroke:#A80036;stroke-width:1.5;"/><text fill="#000000" font-family="sans-serif" font-size="14" lengthAdjust="spacing" textLength="84" x="280.5719" y="341.9863">查看排队进度</text><ellipse cx="325.5719" cy="472.7144" fill="#FEFECE" filter="url(#f1n7rrkhwrrkvo)" rx="71.5719" ry="16.7144" style="stroke:#A80036;stroke-width:1.5;"/><text fill="#000000" font-family="sans-serif" font-size="14" lengthAdjust="spacing" textLength="84" x="280.5719" y="477.9863">查看候诊列表</text><ellipse cx="325.6469" cy="608.5378" fill="#FEFECE" filter="url(#f1n7rrkhwrrkvo)" rx="51.1469" ry="16.5378" style="stroke:#A80036;stroke-width:1.5;"/><text fill="#000000" font-family="sans-serif" font-size="14" lengthAdjust="spacing" textLength="56" x="295.8976" y="613.5136">呼叫病号</text><ellipse cx="325.6469" cy="540.5378" fill="#FEFECE" filter="url(#f1n7rrkhwrrkvo)" rx="51.1469" ry="16.5378" style="stroke:#A80036;stroke-width:1.5;"/><text fill="#000000" font-family="sans-serif" font-size="14" lengthAdjust="spacing" textLength="56" x="295.8976" y="545.5136">标记过号</text><ellipse cx="325.5719" cy="676.7144" fill="#FEFECE" filter="url(#f1n7rrkhwrrkvo)" rx="71.5719" ry="16.7144" style="stroke:#A80036;stroke-width:1.5;"/><text fill="#000000" font-family="sans-serif" font-size="14" lengthAdjust="spacing" textLength="84" x="280.5719" y="681.9863">处理过号重排</text><ellipse cx="325.5719" cy="744.7144" fill="#FEFECE" filter="url(#f1n7rrkhwrrkvo)" rx="71.5719" ry="16.7144" style="stroke:#A80036;stroke-width:1.5;"/><text fill="#000000" font-family="sans-serif" font-size="14" lengthAdjust="spacing" textLength="84" x="280.5719" y="749.9863">管理医生状态</text><ellipse cx="325.5719" cy="812.7144" fill="#FEFECE" filter="url(#f1n7rrkhwrrkvo)" rx="71.5719" ry="16.7144" style="stroke:#A80036;stroke-width:1.5;"/><text fill="#000000" font-family="sans-serif" font-size="14" lengthAdjust="spacing" textLength="84" x="280.5719" y="817.9863">维护科室信息</text><!--MD5=[494c489cc4328319247ec2e1625e02a3]
entity Student--><ellipse cx="88" cy="360" fill="#FEFECE" filter="url(#f1n7rrkhwrrkvo)" rx="8" ry="8" style="stroke:#A80036;stroke-width:1.5;"/><path d="M88,368 L88,395 M75,376 L101,376 M88,395 L75,410 M88,395 L101,410 " fill="none" filter="url(#f1n7rrkhwrrkvo)" style="stroke:#A80036;stroke-width:1.5;"/><text fill="#000000" font-family="sans-serif" font-size="14" lengthAdjust="spacing" textLength="28" x="74" y="431.5439">学生</text><!--MD5=[5a5d35bcfc46556bdff8e646cc6c81c2]
entity Doctor--><ellipse cx="88" cy="480" fill="#FEFECE" filter="url(#f1n7rrkhwrrkvo)" rx="8" ry="8" style="stroke:#A80036;stroke-width:1.5;"/><path d="M88,488 L88,515 M75,496 L101,496 M88,515 L75,530 M88,515 L101,530 " fill="none" filter="url(#f1n7rrkhwrrkvo)" style="stroke:#A80036;stroke-width:1.5;"/><text fill="#000000" font-family="sans-serif" font-size="14" lengthAdjust="spacing" textLength="28" x="74" y="551.5439">医生</text><!--MD5=[c8b2cb7ab209025f476c1467c68b906a]
entity Nurse--><ellipse cx="88" cy="712" fill="#FEFECE" filter="url(#f1n7rrkhwrrkvo)" rx="8" ry="8" style="stroke:#A80036;stroke-width:1.5;"/><path d="M88,720 L88,747 M75,728 L101,728 M88,747 L75,762 M88,747 L101,762 " fill="none" filter="url(#f1n7rrkhwrrkvo)" style="stroke:#A80036;stroke-width:1.5;"/><text fill="#000000" font-family="sans-serif" font-size="14" lengthAdjust="spacing" textLength="28" x="74" y="783.5439">护士</text><path d="M481,381.5 L481,400.5 L376.64,404.5 L481,408.5 L481,427.0088 A0,0 0 0 0 481,427.0088 L658,427.0088 A0,0 0 0 0 658,427.0088 L658,391.5 L648,381.5 L481,381.5 A0,0 0 0 0 481,381.5 " fill="#FBFB77" filter="url(#f1n7rrkhwrrkvo)" style="stroke:#A80036;stroke-width:1.0;"/><path d="M648,381.5 L648,391.5 L658,391.5 L648,381.5 " fill="#FBFB77" style="stroke:#A80036;stroke-width:1.0;"/><text fill="#000000" font-family="sans-serif" font-size="13" lengthAdjust="spacing" textLength="156" x="487" y="401.3979">前置条件：已在挂号机挂号</text><text fill="#000000" font-family="sans-serif" font-size="13" lengthAdjust="spacing" textLength="117" x="487" y="419.1523">作用：进入候诊队列</text><path d="M268.5,6 L268.5,69.2632 L382.5,69.2632 L382.5,16 L372.5,6 L268.5,6 " fill="#FBFB77" filter="url(#f1n7rrkhwrrkvo)" style="stroke:#A80036;stroke-width:1.0;"/><path d="M372.5,6 L372.5,16 L382.5,16 L372.5,6 " fill="#FBFB77" style="stroke:#A80036;stroke-width:1.0;"/><text fill="#000000" font-family="sans-serif" font-size="13" lengthAdjust="spacing" textLength="65" x="274.5" y="25.8979">显示内容：</text><text fill="#000000" font-family="sans-serif" font-size="13" lengthAdjust="spacing" textLength="67" x="274.5" y="43.6523">1. 我的号码</text><text fill="#000000" font-family="sans-serif" font-size="13" lengthAdjust="spacing" textLength="93" x="274.5" y="61.4067">2. 前方等待人数</text><path d="M6,590 L6,653.2632 A0,0 0 0 0 6,653.2632 L170,653.2632 A0,0 0 0 0 170,653.2632 L170,621.03 L274.92,611.24 L170,613.03 L170,600 L160,590 L6,590 A0,0 0 0 0 6,590 " fill="#FBFB77" filter="url(#f1n7rrkhwrrkvo)" style="stroke:#A80036;stroke-width:1.0;"/><path d="M160,590 L160,600 L170,600 L160,590 " fill="#FBFB77" style="stroke:#A80036;stroke-width:1.0;"/><text fill="#000000" font-family="sans-serif" font-size="13" lengthAdjust="spacing" textLength="65" x="12" y="609.8979">系统逻辑：</text><text fill="#000000" font-family="sans-serif" font-size="13" lengthAdjust="spacing" textLength="143" x="12" y="627.6523">自动分配病人给空闲医生</text><text fill="#000000" font-family="sans-serif" font-size="13" lengthAdjust="spacing" textLength="52" x="12" y="645.4067">避免抢号</text><path d="M230,104 L230,167.2632 L421,167.2632 L421,114 L411,104 L230,104 " fill="#FBFB77" filter="url(#f1n7rrkhwrrkvo)" style="stroke:#A80036;stroke-width:1.0;"/><path d="M411,104 L411,114 L421,114 L411,104 " fill="#FBFB77" style="stroke:#A80036;stroke-width:1.0;"/><text fill="#000000" font-family="sans-serif" font-size="13" font-weight="bold" lengthAdjust="spacing" textLength="98" x="236" y="123.8979">关键业务规则：</text><text fill="#000000" font-family="sans-serif" font-size="13" lengthAdjust="spacing" textLength="143" x="236" y="141.6523">不排队尾，也不直接插队</text><text fill="#000000" font-family="sans-serif" font-size="13" lengthAdjust="spacing" textLength="117" x="236" y="159.4067">规则为：当前叫号位</text><text fill="#000000" font-family="sans-serif" font-size="13" font-weight="bold" lengthAdjust="spacing" textLength="49" x="357" y="159.4067">顺延3位</text><path d="M246.5,202 L246.5,265.2632 L404.5,265.2632 L404.5,212 L394.5,202 L246.5,202 " fill="#FBFB77" filter="url(#f1n7rrkhwrrkvo)" style="stroke:#A80036;stroke-width:1.0;"/><path d="M394.5,202 L394.5,212 L404.5,212 L394.5,202 " fill="#FBFB77" style="stroke:#A80036;stroke-width:1.0;"/><text fill="#000000" font-family="sans-serif" font-size="13" lengthAdjust="spacing" textLength="65" x="252.5" y="221.8979">场景示例：</text><text fill="#000000" font-family="sans-serif" font-size="13" lengthAdjust="spacing" textLength="137" x="252.5" y="239.6523">医生去开会 -&gt; 暂停接诊</text><text fill="#000000" font-family="sans-serif" font-size="13" lengthAdjust="spacing" textLength="91" x="252.5" y="257.4067">停止分派新病人</text><!--MD5=[c51a79b0086d822877451546a9ed6dec]
link Student to UC_SignIn--><path d="M102.68,393.2 C134.54,394.82 215.13,398.93 269.88,401.72 " fill="none" id="Student-to-UC_SignIn" style="stroke:#A80036;stroke-width:1.0;"/><polygon fill="#A80036" points="275.09,401.98,266.3073,397.523,270.0966,401.7232,265.8964,405.5125,275.09,401.98" style="stroke:#A80036;stroke-width:1.0;"/><!--MD5=[e66d0b1a2afe80aa8fadff2b0ae65258]
link Student to UC_ViewProgress--><path d="M102.68,389.25 C134.6,381.66 215.45,362.43 270.21,349.41 " fill="none" id="Student-to-UC_ViewProgress" style="stroke:#A80036;stroke-width:1.0;"/><polygon fill="#A80036" points="275.09,348.25,265.4092,346.4382,270.2254,349.4055,267.2581,354.2217,275.09,348.25" style="stroke:#A80036;stroke-width:1.0;"/><!--MD5=[4f8326bd5a016c8c71d48f9e6bd54670]
link Doctor to UC_ViewList--><path d="M102.68,510.18 C133.06,505.02 207.78,492.33 262.12,483.1 " fill="none" id="Doctor-to-UC_ViewList" style="stroke:#A80036;stroke-width:1.0;"/><polygon fill="#A80036" points="267.31,482.21,257.7714,479.7575,262.3792,483.0389,259.0977,487.6467,267.31,482.21" style="stroke:#A80036;stroke-width:1.0;"/><!--MD5=[243dc65f2b4ed2d0a652a7641fdfaae8]
link Doctor to UC_Call--><path d="M102.87,518.98 C128,530.63 182.81,555.66 230,574.5 C247.76,581.59 267.64,588.84 284.57,594.82 " fill="none" id="Doctor-to-UC_Call" style="stroke:#A80036;stroke-width:1.0;"/><polygon fill="#A80036" points="289.72,596.63,282.5558,589.8717,285.0029,594.9719,279.9028,597.419,289.72,596.63" style="stroke:#A80036;stroke-width:1.0;"/><!--MD5=[ea9434aae8266f050162053742688b53]
link Doctor to UC_Skip--><path d="M102.68,514.13 C134.92,517.96 217.06,527.73 271.83,534.24 " fill="none" id="Doctor-to-UC_Skip" style="stroke:#A80036;stroke-width:1.0;"/><polygon fill="#A80036" points="277.04,534.86,268.5715,529.8316,272.0745,534.2733,267.6328,537.7763,277.04,534.86" style="stroke:#A80036;stroke-width:1.0;"/><!--MD5=[3f68c4d5299c4e716f9659772b70b7e6]
link Nurse to UC_ReQueue--><path d="M102.68,740.55 C135.55,731.06 220.32,706.58 275.04,690.78 " fill="none" id="Nurse-to-UC_ReQueue" style="stroke:#A80036;stroke-width:1.0;"/><polygon fill="#A80036" points="279.91,689.38,270.1537,688.0332,275.1062,690.7668,272.3726,695.7193,279.91,689.38" style="stroke:#A80036;stroke-width:1.0;"/><!--MD5=[a8353b227db0d3c12e6d812b5a18ad21]
link Nurse to UC_ManageStatus--><path d="M102.68,744.5 C130.64,744.5 196.13,744.5 248.75,744.5 " fill="none" id="Nurse-to-UC_ManageStatus" style="stroke:#A80036;stroke-width:1.0;"/><polygon fill="#A80036" points="253.8,744.5,244.8,740.5,248.8,744.5,244.8,748.5,253.8,744.5" style="stroke:#A80036;stroke-width:1.0;"/><!--MD5=[ee1f767a51ebc203df64d3aa16f98399]
link Nurse to UC_ManageDept--><path d="M102.68,748.45 C135.55,757.94 220.32,782.42 275.04,798.22 " fill="none" id="Nurse-to-UC_ManageDept" style="stroke:#A80036;stroke-width:1.0;"/><polygon fill="#A80036" points="279.91,799.62,272.3726,793.2807,275.1062,798.2332,270.1537,800.9668,279.91,799.62" style="stroke:#A80036;stroke-width:1.0;"/><!--MD5=[ed76bedf68995c567cc2f6c0bec44999]
link UC_ViewProgress to GMN25--><path d="M280.14,323.71 C251.6,313.04 217.05,294.68 200,265 C164.36,202.95 164.36,166.05 200,104 C214.55,78.66 242.52,62.53 268.37,52.52 " fill="none" id="UC_ViewProgress-GMN25" style="stroke:#A80036;stroke-width:1.0;stroke-dasharray:7.0,7.0;"/><!--MD5=[d6ccfc5be3d42cb7c33ea1806c22b935]
link UC_ReQueue to GMN31--><path d="M264.18,667.85 C239.26,660.82 213.25,648.08 200,625 C176.59,584.24 176.59,242.76 200,202 C208.29,187.57 220.93,176.12 235.06,167.09 " fill="none" id="UC_ReQueue-GMN31" style="stroke:#A80036;stroke-width:1.0;stroke-dasharray:7.0,7.0;"/><!--MD5=[5db29ff9cba942ea446a472b19bc5e6c]
link UC_ManageStatus to GMN34--><path d="M264.18,735.85 C239.26,728.82 213.25,716.08 200,693 C158.83,621.32 161.75,394.29 200,321 C212.29,297.45 234.13,278.95 256.18,265.14 " fill="none" id="UC_ManageStatus-GMN34" style="stroke:#A80036;stroke-width:1.0;stroke-dasharray:7.0,7.0;"/><!--MD5=[5e8ee9bd046667760f8a20e5e1cb6b0a]
@startuml
left to right direction
skinparam packageStyle rectangle

actor "学生" as Student
actor "医生" as Doctor
actor "护士" as Nurse

rectangle "智能候诊系统业务边界" {
    
    ' - - - 学生端功能 - - -
    usecase "扫码签到" as UC_SignIn
    usecase "查看排队进度" as UC_ViewProgress
    
    ' - - - 医生端功能 - - -
    usecase "查看候诊列表" as UC_ViewList
    usecase "呼叫病号" as UC_Call
    usecase "标记过号" as UC_Skip
    
    ' - - - 护士端功能 - - -
    usecase "处理过号重排" as UC_ReQueue
    usecase "管理医生状态" as UC_ManageStatus
    usecase "维护科室信息" as UC_ManageDept

}

' - - - 关系定义 - - -
Student - -> UC_SignIn
Student - -> UC_ViewProgress

Doctor - -> UC_ViewList
Doctor - -> UC_Call
Doctor - -> UC_Skip

Nurse - -> UC_ReQueue
Nurse - -> UC_ManageStatus
Nurse - -> UC_ManageDept

' - - - 业务规则备注 (体现细致度) - - -
note right of UC_SignIn
  前置条件：已在挂号机挂号
  作用：进入候诊队列
end note

note bottom of UC_ViewProgress
  显示内容：
  1. 我的号码
  2. 前方等待人数
end note

note left of UC_Call
  系统逻辑：
  自动分配病人给空闲医生
  避免抢号
end note

note bottom of UC_ReQueue
  <b>关键业务规则：</b>
  不排队尾，也不直接插队
  规则为：当前叫号位 <b>顺延3位</b>
end note

note bottom of UC_ManageStatus
  场景示例：
  医生去开会 -> 暂停接诊
  停止分派新病人
end note

@enduml

@startuml
left to right direction
skinparam packageStyle rectangle

actor "学生" as Student
actor "医生" as Doctor
actor "护士" as Nurse

rectangle "智能候诊系统业务边界" {
    
    usecase "扫码签到" as UC_SignIn
    usecase "查看排队进度" as UC_ViewProgress
    
    usecase "查看候诊列表" as UC_ViewList
    usecase "呼叫病号" as UC_Call
    usecase "标记过号" as UC_Skip
    
    usecase "处理过号重排" as UC_ReQueue
    usecase "管理医生状态" as UC_ManageStatus
    usecase "维护科室信息" as UC_ManageDept

}

Student - -> UC_SignIn
Student - -> UC_ViewProgress

Doctor - -> UC_ViewList
Doctor - -> UC_Call
Doctor - -> UC_Skip

Nurse - -> UC_ReQueue
Nurse - -> UC_ManageStatus
Nurse - -> UC_ManageDept

note right of UC_SignIn
  前置条件：已在挂号机挂号
  作用：进入候诊队列
end note

note bottom of UC_ViewProgress
  显示内容：
  1. 我的号码
  2. 前方等待人数
end note

note left of UC_Call
  系统逻辑：
  自动分配病人给空闲医生
  避免抢号
end note

note bottom of UC_ReQueue
  <b>关键业务规则：</b>
  不排队尾，也不直接插队
  规则为：当前叫号位 <b>顺延3位</b>
end note

note bottom of UC_ManageStatus
  场景示例：
  医生去开会 -> 暂停接诊
  停止分派新病人
end note

@enduml

PlantUML version 1.2021.00(Sun Jan 10 18:25:05 CST 2021)
(MIT source distribution)
Java Runtime: Java(TM) SE Runtime Environment
JVM: Java HotSpot(TM) 64-Bit Server VM
Default Encoding: GBK
Language: zh
Country: CN
--></g></svg>